<svg xmlns="http://www.w3.org/2000/svg" viewBox="55.19 272.63 855.53 187.65" width="855" height="188" fill="none">
  <path d="M 55.1913 460.2766 L 55.1913 272.6304 L 242.8375 272.6304 L 242.8375 460.2766 Z M 106.5468 402.8287 L 94.8818 431.8228 L 83.2167 402.8287 L 68.912 402.8287 L 68.912 450.8326 L 80.289 450.8326 L 80.289 423.1822 L 91.4257 450.8326 L 98.3866 450.8326 L 109.5234 423.1822 L 109.5234 450.8326 L 120.9482 450.8326 L 120.9482 402.8287 Z M 163.0161 441.2047 C 165.7521 437.5327 168.2721 433.0687 170.2161 428.5327 L 161.6481 424.6447 L 161.2881 425.8687 C 160.4961 428.3887 158.8401 432.1327 157.2561 434.5807 L 153.9441 430.6207 C 152.9361 429.3967 151.7121 428.0287 150.5601 426.5167 C 150.4881 426.4447 150.4881 426.4447 150.4881 426.3727 C 156.2481 424.0687 161.5761 418.4527 161.5761 412.2607 C 161.5761 405.8527 155.8161 402.0367 148.9761 402.0367 C 140.9841 402.0367 135.2241 407.0767 135.2241 413.5567 C 135.2241 416.8687 136.5201 420.4687 138.3921 423.9247 C 132.9201 426.6607 128.0961 430.5487 128.0961 437.7487 C 128.0961 447.0367 135.1521 451.6447 143.9361 451.6447 C 148.6161 451.6447 152.6481 450.2047 156.1041 447.8287 L 156.5361 448.3327 L 156.9681 448.6927 L 157.1841 448.9807 C 157.6881 449.4847 158.4081 450.2767 158.9841 450.7807 L 172.2321 450.7807 Z M 138.9681 436.9567 C 138.9681 434.7247 139.8321 432.8527 141.7761 431.2687 L 145.9521 436.6687 C 146.8881 437.8927 148.4721 439.7647 150.4161 441.8527 C 148.6881 442.7887 146.8881 443.3647 145.2321 443.3647 C 142.1361 443.3647 138.9681 441.1327 138.9681 436.9567 Z M 145.5201 413.7727 C 145.5201 411.5407 147.1761 409.8127 149.4081 409.8127 C 150.8481 409.8127 152.5041 410.6047 152.5041 412.6927 C 152.5041 415.2847 150.3441 417.0127 146.9601 418.7407 C 146.0241 416.7247 145.5201 415.0687 145.5201 413.7727 Z M 196.4017 402.7567 L 196.4017 434.8715 C 196.4017 438.9042 193.9535 441.4003 190.0648 441.4003 C 187.6166 441.4003 185.4564 440.3919 183.2484 438.2796 L 182.1918 437.2718 L 177.056 446.2489 C 180.9916 450.2811 186.0326 451.6737 190.8812 451.6737 C 200.7699 451.6737 207.8265 446.3924 207.8265 435.0633 L 207.8265 402.7567 Z" fill="#E65C38" fill-rule="nonzero" />
  <path d="M 285.8318 400.5961 C 278.8425 400.5961 273.0811 398.7701 268.5475 395.118 C 264.0769 391.466 261.3693 386.6176 260.4248 380.5728 L 272.3255 377.6448 C 273.0181 381.6747 274.5923 384.6971 277.0479 386.712 C 279.5666 388.7269 282.652 389.7344 286.304 389.7344 C 288.256 389.7344 289.9875 389.4196 291.4987 388.7899 C 293.0729 388.0973 294.3007 387.1213 295.1823 385.862 C 296.1268 384.5397 296.599 382.997 296.599 381.2339 C 296.599 379.5968 296.1268 378.18 295.1823 376.9837 C 294.2378 375.7873 292.7895 374.6854 290.8376 373.678 C 288.9486 372.6705 286.5559 371.6315 283.6594 370.5611 C 279.5036 368.924 276.009 367.1924 273.1755 365.3664 C 270.405 363.4774 268.3271 361.305 266.9418 358.8494 C 265.5566 356.3937 264.8639 353.4972 264.8639 350.16 C 264.8639 346.6339 265.714 343.517 267.4141 340.8095 C 269.1771 338.1019 271.6014 335.9611 274.6867 334.3869 C 277.835 332.8128 281.4871 332.0257 285.6429 332.0257 C 290.0505 332.0257 293.9544 333.0646 297.3546 335.1425 C 300.8178 337.1574 303.5883 340.1798 305.6662 344.2097 L 295.9379 350.16 C 294.6156 347.7673 293.0414 345.9727 291.2154 344.7764 C 289.4523 343.517 287.4689 342.8874 285.2651 342.8874 C 283.6909 342.8874 282.2742 343.2022 281.0148 343.8319 C 279.8185 344.3986 278.8425 345.2171 278.0869 346.2876 C 277.3943 347.295 277.0479 348.4914 277.0479 349.8767 C 277.0479 351.3249 277.4572 352.6157 278.2758 353.7491 C 279.1573 354.8825 280.5426 355.9844 282.4316 357.0548 C 284.3835 358.0623 286.9022 359.1327 289.9875 360.2661 C 294.0803 361.7773 297.4805 363.4459 300.1881 365.2719 C 302.9586 367.098 305.068 369.2388 306.5162 371.6945 C 307.9644 374.0872 308.6885 377.0152 308.6885 380.4783 C 308.6885 384.3822 307.7126 387.8769 305.7606 390.9622 C 303.8716 393.9846 301.227 396.3459 297.8268 398.046 C 294.4266 399.746 290.4283 400.5961 285.8317 400.5961 Z M 338.3466 400.3131 C 334.5686 400.3131 331.2629 399.652 328.4294 398.3297 C 325.6589 396.9444 323.2976 395.1184 321.3457 392.8516 C 319.4567 390.5848 318.0399 388.0032 317.0954 385.1067 C 316.1509 382.2103 315.6787 379.1879 315.6787 376.0396 C 315.6787 372.9542 316.1509 369.9633 317.0954 367.0669 C 318.0399 364.1704 319.4567 361.5888 321.3457 359.322 C 323.2976 357.0552 325.6589 355.2607 328.4294 353.9384 C 331.2629 352.5531 334.5686 351.8605 338.3466 351.8605 C 343.0691 351.8605 347.1619 352.9939 350.625 355.2607 C 354.0882 357.5275 356.6698 360.9591 358.3699 365.5557 L 348.1693 369.617 C 347.4137 367.4132 346.2489 365.6186 344.6747 364.2334 C 343.1635 362.7851 341.0541 362.061 338.3466 362.061 C 335.8279 362.061 333.75 362.7537 332.1129 364.1389 C 330.4758 365.4612 329.2794 367.1928 328.5238 369.3337 C 327.7682 371.4745 327.3904 373.7098 327.3904 376.0396 C 327.3904 378.3693 327.7682 380.6361 328.5238 382.8399 C 329.2794 384.9808 330.4758 386.7439 332.1129 388.1291 C 333.75 389.4514 335.8279 390.1126 338.3466 390.1126 C 341.0541 390.1126 343.1635 389.4199 344.6747 388.0347 C 346.2489 386.5864 347.4137 384.7289 348.1693 382.4621 L 358.3699 386.5235 C 356.6698 391.183 354.0882 394.6461 350.625 396.9129 C 347.1619 399.1797 343.0691 400.3131 338.3466 400.3131 Z M 367.1545 399.3683 L 367.1545 333.5369 L 378.9607 333.5369 L 378.9607 359.0079 C 379.4432 358.2149 379.9784 357.5009 380.5663 356.866 C 382.2035 355.1029 384.061 353.8436 386.1389 353.088 C 388.2797 352.2694 390.4206 351.8601 392.5614 351.8601 C 397.8506 351.8601 401.9749 353.3713 404.9343 356.3937 C 407.9567 359.3531 409.4679 363.5404 409.4679 368.9555 L 409.4679 399.3683 L 397.6617 399.3683 L 397.6617 373.3002 C 397.6617 369.3963 396.9691 366.5628 395.5838 364.7998 C 394.1986 362.9737 392.0262 362.0607 389.0668 362.0607 C 385.7296 362.0607 383.2109 363.2571 381.5108 365.6498 C 379.8107 368.0425 378.9607 371.852 378.9607 377.0782 L 378.9607 399.3683 Z M 441.7704 400.3131 C 437.2369 400.3131 433.207 399.2742 429.6809 397.1963 C 426.1548 395.1184 423.3528 392.2534 421.2749 388.6014 C 419.26 384.8863 418.2525 380.6991 418.2525 376.0396 C 418.2525 371.3171 419.26 367.1613 421.2749 363.5722 C 423.2898 359.9202 426.0603 357.0552 429.5865 354.9773 C 433.1755 352.8994 437.2369 351.8605 441.7705 351.8605 C 446.2411 351.8605 450.2394 352.8994 453.7656 354.9773 C 457.2917 357.0552 460.0622 359.9202 462.0771 363.5722 C 464.092 367.1613 465.0995 371.3171 465.0995 376.0396 C 465.0995 380.6991 464.092 384.8549 462.0771 388.5069 C 460.0622 392.159 457.2917 395.0554 453.7656 397.1963 C 450.2394 399.2742 446.2411 400.3131 441.7705 400.3131 Z M 441.7704 390.0181 C 444.1632 390.0181 446.2096 389.4514 447.9097 388.318 C 449.6727 387.1846 450.995 385.579 451.8766 383.5011 C 452.8211 381.4232 453.2933 378.936 453.2933 376.0396 C 453.2933 373.0802 452.821 370.593 451.8766 368.5781 C 450.995 366.5002 449.6727 364.926 447.9097 363.8556 C 446.2096 362.7222 444.1632 362.1555 441.7704 362.1555 C 439.3148 362.1555 437.2054 362.7222 435.4423 363.8556 C 433.6793 364.926 432.3255 366.5002 431.381 368.5781 C 430.4365 370.593 429.9643 373.0802 429.9643 376.0396 C 429.9643 378.936 430.4365 381.4232 431.381 383.5011 C 432.3255 385.579 433.6793 387.1846 435.4423 388.318 C 437.2054 389.4514 439.3148 390.0181 441.7704 390.0181 Z M 485.3127 400.3128 C 482.1014 400.3128 479.4568 399.3369 477.3789 397.3849 C 475.301 395.4329 474.2621 392.3476 474.2621 388.1288 L 474.2621 333.537 L 485.8794 333.537 L 485.8794 385.862 C 485.8794 387.1843 486.1942 388.1288 486.8239 388.6955 C 487.4535 389.1993 488.2721 389.4511 489.2796 389.4511 C 489.7833 389.4511 490.3185 389.4197 490.8852 389.3567 C 491.4519 389.2308 492.0501 389.0733 492.6797 388.8844 L 492.6797 398.8961 C 491.3574 399.3998 490.0351 399.7461 488.7129 399.935 C 487.4535 400.1869 486.3201 400.3128 485.3127 400.3128 Z M 530.5542 399.3686 L 529.7464 393.3911 C 529.4923 393.7624 529.2263 394.1178 528.9486 394.4572 C 527.3115 396.4722 525.4225 397.9519 523.2816 398.8964 C 521.1408 399.8409 518.874 400.3131 516.4812 400.3131 C 513.0811 400.3131 510.0272 399.6835 507.3196 398.4241 C 504.675 397.1648 502.5657 395.3703 500.9915 393.0405 C 499.4803 390.7107 498.7247 388.0347 498.7247 385.0123 C 498.7247 382.3047 499.2599 380.0065 500.3304 378.1175 C 501.4638 376.1655 502.9435 374.6858 504.7695 373.6783 C 506.3436 372.7338 508.0752 372.0727 509.9642 371.6949 C 511.9162 371.3171 513.9941 371.1282 516.1979 371.1282 L 529.6097 371.1282 L 529.6097 369.9948 C 529.6097 367.2243 528.7282 365.1779 526.9651 363.8556 C 525.265 362.4703 522.9353 361.7777 519.9759 361.7777 C 517.5202 361.7777 515.0015 362.2814 512.4199 363.2889 C 509.9012 364.2334 507.6659 365.5871 505.714 367.3502 L 499.7637 359.322 C 503.0379 356.6774 506.3751 354.7884 509.7753 353.655 C 513.2385 352.4586 516.9535 351.8605 520.9204 351.8605 C 527.3429 351.8605 532.3488 353.4661 535.9379 356.6774 C 539.5269 359.8887 541.3215 364.3278 541.3215 369.9948 L 541.3215 399.3686 Z M 517.898 379.8176 C 516.8905 379.8176 515.8831 379.912 514.8756 380.1009 C 513.9311 380.2268 513.1125 380.5732 512.4199 381.1399 C 511.7902 381.5806 511.318 382.1473 511.0032 382.8399 C 510.6883 383.4696 510.5309 384.1937 510.5309 385.0123 C 510.5309 386.7754 511.2235 388.1921 512.6088 389.2625 C 513.9941 390.3329 515.8516 390.8682 518.1813 390.8682 C 520.2592 390.8682 522.1482 390.4274 523.8483 389.5459 C 525.6114 388.6014 526.9966 387.342 528.0041 385.7679 C 529.0745 384.1308 529.6097 382.2732 529.6097 380.1954 L 529.6097 379.8176 Z M 552.2785 399.3687 L 552.2785 352.805 L 564.0847 352.805 L 564.0847 359.5187 C 564.2882 359.1613 564.5086 358.8125 564.7459 358.472 C 566.1941 356.3941 567.9571 354.7885 570.035 353.6551 C 572.1759 352.4587 574.3482 351.8605 576.5521 351.8605 C 578.1262 351.8605 579.6059 352.0809 580.9912 352.5217 C 582.4394 352.8995 583.9191 353.5606 585.4303 354.5051 L 579.7633 365.0835 C 579.0707 364.7057 578.1892 364.3594 577.1187 364.0445 C 576.0483 363.7297 574.9779 363.5723 573.9075 363.5723 C 572.6481 363.5723 571.4203 363.7926 570.2239 364.2334 C 569.0905 364.6742 568.0516 365.3668 567.1071 366.3113 C 566.2255 367.2558 565.5014 368.5151 564.9347 370.0893 C 564.6829 370.9708 564.4625 372.1042 564.2736 373.4895 C 564.1477 374.8118 564.0847 376.7637 564.0847 379.3454 L 564.0847 399.3687 Z M 621.9828 400.8795 C 615.7491 400.8795 610.2395 399.4312 605.4541 396.5348 C 600.7316 393.6384 597.0481 389.6085 594.4035 384.4453 C 591.7589 379.282 590.4366 373.2687 590.4366 366.4054 C 590.4366 359.542 591.7589 353.5602 594.4035 348.46 C 597.0481 343.2967 600.7316 339.2669 605.4541 336.3704 C 610.2395 333.474 615.7491 332.0257 621.9828 332.0257 C 628.972 332.0257 634.9853 333.7888 640.0226 337.3149 C 645.1229 340.7781 648.775 345.5635 650.9788 351.6713 L 639.4559 355.9215 C 638.0707 352.0805 635.8669 349.0896 632.8445 346.9488 C 629.885 344.8079 626.2645 343.7375 621.9828 343.7375 C 618.0788 343.7375 614.6472 344.6505 611.6878 346.4765 C 608.7913 348.3025 606.556 350.9156 604.9818 354.3158 C 603.4706 357.6531 602.715 361.6829 602.715 366.4054 C 602.715 371.1279 603.4706 375.1892 604.9818 378.5894 C 606.556 381.9896 608.7913 384.6027 611.6878 386.4287 C 614.6472 388.2547 618.0788 389.1677 621.9828 389.1677 C 626.2645 389.1677 629.885 388.0973 632.8445 385.9565 C 635.8669 383.8156 638.0707 380.8247 639.4559 376.9837 L 650.9788 381.1395 C 648.775 387.2473 645.1229 392.0642 640.0226 395.5903 C 634.9853 399.1164 628.972 400.8795 621.9828 400.8795 Z M 659.4804 399.3687 L 659.4804 352.805 L 671.2866 352.805 L 671.2866 359.5187 C 671.4901 359.1613 671.7105 358.8125 671.9478 358.472 C 673.396 356.3941 675.159 354.7885 677.2369 353.6551 C 679.3778 352.4587 681.5501 351.8605 683.754 351.8605 C 685.3281 351.8605 686.8078 352.0809 688.1931 352.5217 C 689.6413 352.8995 691.121 353.5606 692.6322 354.5051 L 686.9652 365.0835 C 686.2726 364.7057 685.3911 364.3594 684.3206 364.0445 C 683.2502 363.7297 682.1798 363.5723 681.1094 363.5723 C 679.85 363.5723 678.6222 363.7926 677.4258 364.2334 C 676.2924 364.6742 675.2535 365.3668 674.309 366.3113 C 673.4275 367.2558 672.7033 368.5151 672.1366 370.0893 C 671.8848 370.9708 671.6644 372.1042 671.4755 373.4895 C 671.3496 374.8118 671.2866 376.7637 671.2866 379.3454 L 671.2866 399.3687 Z M 728.618 399.3686 L 727.8102 393.3911 C 727.5561 393.7624 727.2901 394.1178 727.0124 394.4572 C 725.3753 396.4722 723.4863 397.9519 721.3454 398.8964 C 719.2046 399.8409 716.9378 400.3131 714.545 400.3131 C 711.1449 400.3131 708.091 399.6835 705.3834 398.4241 C 702.7388 397.1648 700.6295 395.3703 699.0553 393.0405 C 697.5441 390.7107 696.7885 388.0347 696.7885 385.0123 C 696.7885 382.3047 697.3237 380.0065 698.3942 378.1175 C 699.5276 376.1655 701.0073 374.6858 702.8333 373.6783 C 704.4074 372.7338 706.139 372.0727 708.028 371.6949 C 709.98 371.3171 712.0579 371.1282 714.2617 371.1282 L 727.6735 371.1282 L 727.6735 369.9948 C 727.6735 367.2243 726.792 365.1779 725.0289 363.8556 C 723.3288 362.4703 720.9991 361.7777 718.0397 361.7777 C 715.584 361.7777 713.0653 362.2814 710.4837 363.2889 C 707.965 364.2334 705.7297 365.5871 703.7778 367.3502 L 697.8275 359.322 C 701.1017 356.6774 704.4389 354.7884 707.8391 353.655 C 711.3023 352.4586 715.0173 351.8605 718.9842 351.8605 C 725.4067 351.8605 730.4126 353.4661 734.0017 356.6774 C 737.5907 359.8887 739.3853 364.3278 739.3853 369.9948 L 739.3853 399.3686 Z M 715.9618 379.8176 C 714.9543 379.8176 713.9469 379.912 712.9394 380.1009 C 711.9949 380.2268 711.1763 380.5732 710.4837 381.1399 C 709.854 381.5806 709.3818 382.1473 709.067 382.8399 C 708.7521 383.4696 708.5947 384.1937 708.5947 385.0123 C 708.5947 386.7754 709.2873 388.1921 710.6726 389.2625 C 712.0579 390.3329 713.9154 390.8682 716.2451 390.8682 C 718.323 390.8682 720.212 390.4274 721.9121 389.5459 C 723.6752 388.6014 725.0604 387.342 726.0679 385.7679 C 727.1383 384.1308 727.6735 382.2732 727.6735 380.1954 L 727.6735 379.8176 Z M 753.9313 399.3683 L 753.9313 361.9663 L 745.5252 361.9663 L 745.5252 352.8047 L 754.0257 352.8047 L 754.0257 347.8933 C 754.0257 343.8635 754.6869 340.7466 756.0091 338.5428 C 757.3314 336.339 759.0945 334.7963 761.2983 333.9148 C 763.5651 333.0332 765.9893 332.5925 768.5709 332.5925 C 770.5229 332.5925 772.1915 332.7814 773.5768 333.1592 C 775.025 333.474 776.4103 333.9463 777.7326 334.5759 L 773.9546 343.5486 C 773.3249 343.2338 772.6638 342.9819 771.9711 342.793 C 771.2785 342.5412 770.5859 342.4152 769.8932 342.4152 C 768.3821 342.4152 767.3116 342.919 766.682 343.9264 C 766.0523 344.9339 765.7375 346.2877 765.7375 347.9877 L 765.7375 352.8047 L 775.6547 352.8047 L 775.6547 361.9663 L 765.7375 361.9663 L 765.7375 399.3683 Z M 800.9676 400.3129 C 798.449 400.3129 796.1192 399.8406 793.9784 398.8961 C 791.8375 397.9516 790.1059 396.409 788.7836 394.2681 C 787.5243 392.1273 786.8946 389.2623 786.8946 385.6732 L 786.8946 361.9664 L 778.3942 361.9664 L 778.3942 352.8047 L 786.8946 352.8047 L 786.8946 341.943 L 798.7953 335.6149 L 798.7953 352.8048 L 808.9014 352.8048 L 808.9014 361.9664 L 798.7953 361.9664 L 798.7953 382.4619 C 798.7953 385.1695 799.1416 387.2159 799.8342 388.6012 C 800.5898 389.9864 802.0381 390.679 804.1789 390.679 C 804.8086 390.679 805.5012 390.6161 806.2568 390.4901 C 807.0754 390.3642 807.9569 390.1753 808.9014 389.9234 L 808.9014 398.8962 C 807.5791 399.3999 806.2568 399.7462 804.9345 399.9351 C 803.6122 400.187 802.2899 400.3129 800.9677 400.3129 Z M 837.7091 400.3131 C 833.6792 400.3131 830.216 399.652 827.3196 398.3297 C 824.4231 397.0074 822.0304 395.2443 820.1414 393.0405 C 818.3154 390.7737 816.9616 388.2236 816.0801 385.3901 C 815.1986 382.4936 814.7578 379.4712 814.7578 376.3229 C 814.7578 373.3005 815.1986 370.3411 816.0801 367.4447 C 816.9616 364.5482 818.2839 361.9351 820.047 359.6053 C 821.81 357.2756 824.0768 355.4181 826.8473 354.0328 C 829.6808 352.5846 833.0495 351.8605 836.9534 351.8605 C 840.6055 351.8605 843.7853 352.4901 846.4929 353.7495 C 849.2004 354.9458 851.4357 356.6459 853.1988 358.8497 C 854.9618 360.9906 856.2841 363.5093 857.1657 366.4057 C 858.1102 369.3022 858.5824 372.3875 858.5824 375.6618 C 858.5824 376.1025 858.5509 376.7322 858.4879 377.5508 C 858.4879 378.3064 858.425 379.1249 858.299 380.0064 L 826.4695 380.0064 C 826.7844 383.3437 828.0122 385.8623 830.1531 387.5624 C 832.3569 389.2625 835.0959 390.1126 838.3702 390.1126 C 840.7629 390.1126 843.0927 389.7033 845.3594 388.8847 C 847.6262 388.0032 849.6412 386.7753 851.4042 385.2012 L 857.2601 393.135 C 855.0563 394.835 852.9784 396.2203 851.0264 397.2907 C 849.0745 398.3612 847.0281 399.1168 844.8872 399.5575 C 842.8093 400.0613 840.4166 400.3131 837.709 400.3131 Z M 847.4374 371.2226 C 847.4374 369.9004 847.1855 368.6725 846.6818 367.5391 C 846.178 366.3428 845.4854 365.3038 844.6039 364.4223 C 843.7223 363.5407 842.6519 362.8796 841.3926 362.4388 C 840.1962 361.9351 838.811 361.6832 837.2368 361.6832 C 834.907 361.6832 832.9551 362.1555 831.3809 363.1 C 829.8068 364.0445 828.6104 365.2723 827.7918 366.7835 C 827.0362 368.2317 826.564 369.7429 826.3751 371.3171 L 847.4364 371.3171 C 847.437 371.2854 847.4374 371.254 847.4374 371.2226 Z M 885.6901 400.3128 C 881.5973 400.3128 878.0712 399.2739 875.1118 397.196 C 872.1524 395.0551 869.8541 392.1587 868.217 388.5066 C 866.6428 384.7916 865.8557 380.6358 865.8557 376.0393 C 865.8557 370.939 866.7373 366.5943 868.5003 363.0052 C 870.3263 359.4162 872.7505 356.6771 875.7729 354.7881 C 878.7953 352.8362 882.1011 351.8602 885.6901 351.8602 C 888.2088 351.8602 890.5385 352.3954 892.6794 353.4658 C 894.8832 354.4733 896.7722 356.016 898.3464 358.0938 C 898.6137 358.4467 898.8656 358.8159 899.102 359.2014 L 899.102 333.537 L 910.7193 333.537 L 910.7193 399.3683 L 899.102 399.3683 L 899.102 392.9844 C 898.8053 393.4715 898.4904 393.9309 898.1575 394.3625 C 896.5204 396.5034 894.5999 398.046 892.3961 398.9905 C 890.2552 399.8721 888.0199 400.3128 885.6901 400.3128 Z M 888.9014 389.5456 C 891.2312 389.5456 893.2146 388.9789 894.8517 387.8455 C 896.5518 386.7121 897.8426 385.1379 898.7242 383.123 C 899.6687 381.1081 900.1409 378.7468 900.1409 376.0393 C 900.1409 373.3317 899.6687 370.9705 898.7242 368.9556 C 897.8426 366.9406 896.5518 365.398 894.8517 364.3275 C 893.2146 363.1941 891.2312 362.6274 888.9014 362.6274 C 886.6346 362.6274 884.6512 363.1941 882.9511 364.3275 C 881.251 365.398 879.9287 366.9406 878.9842 368.9556 C 878.1027 370.9075 877.6619 373.2688 877.6619 376.0393 C 877.6619 378.8098 878.1027 381.2025 878.9842 383.2175 C 879.9287 385.2324 881.251 386.8065 882.9511 387.9399 C 884.6512 389.0104 886.6346 389.5456 888.9014 389.5456 Z" fill="#1a1a1a" fill-rule="nonzero" />
</svg>